<svg version="1" xmlns="http://www.w3.org/2000/svg" width="666.667" height="666.667" viewBox="0 0 500.000000 500.000000"><path d="M227.3 1.1C164.2 6.7 103.1 38 62.1 85.5c-62.7 72.6-79.2 171.3-43.5 259C31.4 375.7 49.2 402.3 74 427c20.5 20.5 40.3 34.7 66.5 47.5 32.7 16.1 64.6 24 102 25.2 43.1 1.4 82-7.3 120.7-26.8 67.5-34.2 116.1-97.7 131.6-171.9 3.9-18.7 4.7-27.1 4.7-51-.1-25.3-1.3-36.6-6.2-57.5-5.7-24.1-18.5-55-30.9-74.5-14.6-23-38.1-49.2-57.4-64.1-51.6-40-114-58.5-177.7-52.8zM290 16c73.4 13 135.7 58.3 170.3 124 24.2 45.8 32.4 98.5 23.6 151-6.5 38.6-24.1 77.2-49.4 108.5-9.6 11.9-29.6 31.2-41.5 40.1-41.9 31.5-90.2 47.6-142.5 47.5-39.8 0-72.6-7.7-107-25C76.1 428 29.1 364.6 16 290c-2.8-15.8-3.8-47.6-2.1-64.1C25.3 115.3 111.9 27.6 223 14.1c4.1-.5 18.1-.8 31-.6 18.8.2 26 .7 36 2.5z"/><path d="M242.1 50.1c-6.5 1.3-16.2 6.1-21.1 10.5-14.8 13.3-19.2 34.9-10.8 52.6 4.7 9.8 11.8 16.9 21.7 21.6 6.3 3.1 8.8 3.7 16.1 4 13.8.7 23.4-2.8 33.4-11.8 10.7-9.8 16.2-25.9 13.7-40.1-4.5-25.1-28.4-41.7-53-36.8zm21.3 17c5.9 2.7 11.8 8.6 14.7 14.7 3.5 7.2 3.3 17.9-.4 25.4-5.7 11.6-16 17.4-29.1 16.6-11.1-.7-19.8-6.4-24.7-16.1-2.8-5.3-3.6-16-1.9-22.2 4.7-17 25.2-26.1 41.4-18.4zM131 97.2c0 17.2 5.3 31.6 15.9 43.1 7.3 7.8 14.5 12.8 33.5 23.1 8.8 4.8 19.3 11 23.3 13.8 6.9 4.8 15.3 13 15.3 14.9 0 .5.5.9 1.1.9 1.9 0 0-8.9-3.3-16-5-10.7-16.8-21.4-36.3-33-11.8-7.1-17.7-11.3-23-16.6-8-7.9-16.4-20-21.9-31.3-2-4.1-3.8-7.7-4.1-7.9-.3-.3-.5 3.7-.5 9zM364.8 95.4c-9.5 19.9-22.8 35.1-39.4 45-31.2 18.7-41.7 29.4-45.5 46.2-1.3 5.6-.5 8.3 1.3 5 4.1-7.4 15.3-15.5 39.3-28.6 8.3-4.5 17.7-10.2 21.1-12.5 18.4-13.1 27.9-31.9 27.2-54l-.3-9-3.7 7.9z"/><path d="M134 277.7c0 103-.4 98 8.2 115.3 3.3 6.8 5.9 10.2 13.2 17.6 10 10 17.9 15 30.4 19.3 7.3 2.4 8.9 2.5 27.7 2.6 19.4 0 20.2-.1 28-2.8 4.4-1.6 10.3-4.2 13.1-5.8l5.2-2.9 6.8 1.6c3.8.8 7 1.7 7.2 1.9.2.1-1.8 1.8-4.4 3.6l-4.6 3.4 3.8.7c2.2.4 10.7.7 19 .7 17.8.1 26.3-1.6 38.9-7.8 18.9-9.4 32.1-25.4 38.6-47.1l2.3-7.5.4-91.9.3-91.9-17.8.5c-15.7.5-18.8.8-25.8 3.1-11.1 3.7-19.8 9-28 17.3s-13.5 16.8-17.2 27.9l-2.7 8-.6 63.5-.5 63.5-2.6 7.1c-3.3 9.1-8.6 17-15.8 23.6-11.6 10.7-23.6 14.8-43.7 14.8-15.1 0-20.6-1.1-31.1-6.1-10.3-4.9-19.3-13.6-24.6-23.6-6.9-13.3-6.7-9.7-6.7-100.5V204h2.8c23.2.1 44.8 16.6 50.7 39.1 1.2 4.4 1.5 16.2 1.5 61.9 0 31.9.5 59.5 1 63.4 1.5 9.9 5.5 21.1 10.6 29.2 6.8 11 5.1 10.7 22.3 4.2l2.4-.9-3.6-3.7c-2-2-5.2-6.4-7.2-9.7-7.1-11.9-6.9-9.1-7.5-79.5-.7-70.4-.5-68.2-7.6-82.4-8.9-17.8-24.8-30.8-44-36.2-3.9-1.1-11.5-1.8-22.1-2.1l-16.3-.5v90.9z"/></svg>